<svg width="22" height="22" viewBox="0 0 22 22" fill="none" xmlns="http://www.w3.org/2000/svg">
<g clip-path="url(#clip0_11_753)">
<path d="M19.5066 5.86671L10.7616 14.6117C9.89074 15.4825 7.30572 15.8858 6.72822 15.3083C6.15072 14.7308 6.54488 12.1458 7.41572 11.275L16.1699 2.52085C16.3858 2.28532 16.6471 2.09599 16.9383 1.96427C17.2293 1.83254 17.5441 1.76113 17.8635 1.75441C18.1829 1.74769 18.5004 1.80575 18.7968 1.92511C19.0932 2.04447 19.3623 2.22267 19.5879 2.4489C19.8135 2.67513 19.9909 2.94473 20.1095 3.24141C20.228 3.53811 20.2853 3.85574 20.2777 4.17515C20.2701 4.49456 20.1977 4.80915 20.0653 5.09987C19.9327 5.39059 19.7427 5.65147 19.5066 5.86671Z" stroke="#201F29" stroke-width="2" stroke-linecap="round" stroke-linejoin="round"/>
<path d="M10.0834 3.66666H5.50004C4.52758 3.66666 3.59501 4.05297 2.90737 4.7406C2.21974 5.42824 1.83337 6.36087 1.83337 7.33333V16.5C1.83337 17.4725 2.21974 18.4051 2.90737 19.0927C3.59501 19.7804 4.52758 20.1667 5.50004 20.1667H15.5834C17.6092 20.1667 18.3334 18.5167 18.3334 16.5V11.9167" stroke="#201F29" stroke-width="2" stroke-linecap="round" stroke-linejoin="round"/>
</g>
<defs>
<clipPath id="clip0_11_753">
<rect width="22" height="22" fill="white"/>
</clipPath>
</defs>
</svg>
