<svg width="25" height="25" viewBox="0 0 25 25" fill="none" xmlns="http://www.w3.org/2000/svg">
<rect x="12.9489" y="15.0087" width="2.49717" height="7.07532" rx="1.24859" transform="rotate(-45 12.9489 15.0087)" fill="#9DB2CE"/>
<path fill-rule="evenodd" clip-rule="evenodd" d="M15.4505 15.4505C18.2948 12.6061 18.2948 7.99452 15.4505 5.15017C12.6061 2.30581 7.99451 2.30581 5.15016 5.15017C2.3058 7.99452 2.3058 12.6061 5.15016 15.4505C7.99451 18.2948 12.6061 18.2948 15.4505 15.4505ZM13.9789 13.9791C16.0106 11.9474 16.0106 8.65341 13.9789 6.62173C11.9472 4.59005 8.65323 4.59005 6.62155 6.62173C4.58986 8.65341 4.58986 11.9474 6.62155 13.9791C8.65323 16.0108 11.9472 16.0108 13.9789 13.9791Z" fill="#9DB2CE"/>
</svg>
